<svg width="656" height="600" viewBox="0 0 656 600" fill="none" xmlns="http://www.w3.org/2000/svg">
<g clip-path="url(#clip0_11_1175)">
<path d="M235.481 479.162L229.183 493.282C234.302 492.467 239.063 496.839 239.17 502.453C239.277 508.068 234.711 513.909 229.591 514.707C230.57 519.066 234.792 520.987 238.457 522.749C242.121 524.511 246.071 527.433 245.799 532.077C245.58 535.807 242.496 539.099 239.221 540.423C235.946 541.747 232.51 541.543 229.193 541.321C234.219 546.579 234.709 556.461 230.295 563.551C225.881 570.641 217.066 574.131 210.465 571.402C215.129 577.204 214.116 587.828 208.328 593.815C202.493 599.85 194.038 600.434 186.645 599.799C167.821 598.207 149.884 591.099 135.079 579.363C129.428 574.873 124.15 569.591 120.926 562.703C117.702 555.814 116.752 547.092 119.755 539.253C118.945 549.073 109.116 556.829 100.274 557.263C91.4317 557.697 83.7115 552.717 77.151 547.038C68.4263 539.485 60.3484 528.898 61.5459 515.835C62.1387 509.368 64.9633 503.148 67.7336 497.124L73.1044 485.444C75.2727 480.729 77.4901 475.934 80.7535 471.978C84.0169 468.021 88.5467 464.958 93.0795 464.987C92.0431 460.252 91.002 455.34 91.8706 450.309C92.7391 445.278 96.065 440.069 100.588 438.891C106.345 437.392 111.223 442.704 117.012 442.203C122.583 441.721 127.186 436.131 132.596 433.916C134.823 432.952 137.283 432.66 139.674 433.073C142.065 433.487 144.283 434.589 146.057 436.244C149.487 439.592 150.916 445.248 149.685 450.599C148.608 455.287 145.739 459.422 143.998 463.943C142.256 468.464 141.986 474.278 145.33 476.747C149.366 479.727 155.508 475.672 158.66 470.767C161.813 465.862 163.623 459.922 167.61 455.797C172.315 450.928 179.681 449.787 184.525 453.176C189.37 456.566 191.223 464.156 188.78 470.608C186.783 475.884 182.209 481.221 183.795 486.189C185.472 491.439 192.809 490.774 197.235 487.063C201.661 483.353 204.6 477.764 208.972 473.97C213.412 470.117 219.21 468.428 224.3 469.507C226.882 470.106 229.272 471.345 231.248 473.112C233.225 474.878 234.725 477.113 235.609 479.612" fill="#E6E6E6"/>
<path d="M133.523 439.48L146.589 445.551C148.553 446.521 150.781 446.822 152.932 446.406C154.829 445.958 156.111 444.798 156.448 443.223L159.488 429.023C160.062 426.344 157.843 423.174 154.213 421.488L146.997 418.135C143.366 416.448 139.513 416.797 137.836 418.963L128.944 430.445C127.958 431.718 127.898 433.446 128.779 435.185C129.849 437.096 131.515 438.605 133.523 439.48Z" fill="#3F3D56"/>
<path d="M538.688 177.023C526.403 143.401 507.233 112.716 482.405 86.9313C461.34 65.0639 428.556 65.9725 428.556 65.9725L428.369 65.7401C420.479 56.0101 409.891 48.8269 397.934 45.0916C385.976 41.3562 373.182 41.2352 361.156 44.7436C358.031 45.6406 355.626 46.0382 354.483 45.6386C333.635 38.3423 334.615 21.874 316.628 8.60714C285.135 -14.6223 180.674 11.9866 165.944 54.7315C154.006 89.3752 100.716 106.167 80.806 132.666C77.6927 136.81 74.6383 141.002 71.6427 145.241C70.2381 147.211 68.8492 149.195 67.4761 151.195C53.3704 171.622 40.716 193.014 29.6063 215.214C22.3211 229.718 15.9894 244.682 10.6516 260.01C-10.1115 320.708 -3.01118 365.931 54.2395 354.759C61.0165 353.433 67.6308 352.246 74.0823 351.199C83.4243 349.675 92.4406 348.422 101.131 347.441C112.834 346.11 123.967 345.238 134.532 344.825C138.084 344.682 141.571 344.586 144.993 344.537C195.589 343.836 233.118 353.358 261.709 368.14C266.556 370.64 271.149 373.284 275.488 376.073C282.115 380.31 288.443 384.997 294.427 390.103C302.708 397.209 310.344 405.034 317.247 413.485L317.626 413.949C351.066 454.854 362.072 500.137 385.334 508.11C484.771 542.199 547.661 418.627 554.11 297.746C554.436 291.655 554.616 285.581 554.65 279.524C554.67 276.817 554.657 274.117 554.61 271.424C554.508 264.4 554.198 257.42 553.68 250.524C553.486 247.888 553.261 245.266 553.006 242.657C552.724 239.844 552.418 237.048 552.063 234.27C549.534 213.902 545.108 194.524 538.688 177.023Z" fill="#0B6E4F"/>
<path d="M230.481 243.53C238.423 247.227 238.554 263.788 236.063 269.154L231.551 278.866L202.786 265.502L207.299 255.789C209.794 250.425 222.534 239.845 230.481 243.53Z" fill="#3F3D56"/>
<path d="M307.78 382.974C308.286 382.974 308.785 382.852 309.234 382.618C309.683 382.384 310.068 382.046 310.358 381.631C310.649 381.216 310.834 380.737 310.9 380.236C310.966 379.734 310.909 379.223 310.735 378.748C310.595 378.359 310.378 378.003 310.099 377.699C309.819 377.394 309.482 377.149 309.106 376.976L160.557 307.958C160.183 307.784 159.778 307.685 159.365 307.668C158.953 307.65 158.541 307.714 158.153 307.856C157.765 307.998 157.409 308.214 157.105 308.494C156.8 308.773 156.554 309.11 156.38 309.484C156.03 310.241 155.994 311.105 156.28 311.889C156.566 312.672 157.151 313.309 157.907 313.661L306.457 382.679C306.871 382.873 307.323 382.974 307.78 382.974Z" fill="#3F3D56"/>
<path d="M191.581 271.696L234.043 291.424L167.435 434.788L124.973 415.059L191.581 271.696Z" fill="#E6E6E6"/>
<path d="M350.981 91.2248C358.922 94.922 359.053 111.482 356.563 116.848L352.05 126.561L323.286 113.196L327.798 103.484C330.293 98.1202 343.034 87.5401 350.981 91.2248Z" fill="#3F3D56"/>
<path d="M173.049 455.961L186.115 462.032C188.079 463.002 190.307 463.303 192.458 462.887C194.355 462.439 195.636 461.279 195.973 459.704L199.014 445.504C199.588 442.825 197.369 439.655 193.739 437.969L186.523 434.616C182.892 432.929 179.039 433.278 177.362 435.444L168.47 446.926C167.484 448.199 167.424 449.926 168.305 451.666C169.374 453.577 171.041 455.086 173.049 455.961Z" fill="#3F3D56"/>
<path d="M213.222 475.893L226.288 481.964C228.252 482.934 230.48 483.234 232.631 482.819C234.528 482.37 235.809 481.21 236.146 479.636L239.187 465.435C239.761 462.756 237.542 459.587 233.912 457.9L226.696 454.547C223.065 452.861 219.212 453.209 217.535 455.375L208.643 466.857C207.657 468.13 207.597 469.858 208.478 471.597C209.547 473.509 211.214 475.017 213.222 475.893Z" fill="#3F3D56"/>
<path d="M300.75 143.777L343.213 163.505L208.571 453.298L166.109 433.57L300.75 143.777Z" fill="#E6E6E6"/>
<path d="M256.692 293.165L261.456 282.68L258.714 281.415L253.963 291.866L185.18 444.375L187.92 445.648" fill="#3F3D56"/>
<path d="M202.952 284.45L207.717 273.966L204.974 272.701L200.224 283.152L131.441 435.66L134.181 436.933" fill="#3F3D56"/>
<path d="M280.708 166.968L338.243 193.7C341.906 188.001 352.948 158.798 350.468 150.133L352.33 141.871L312.603 123.413L307.286 129.954C299.393 132.376 284.026 159.806 280.708 166.968Z" fill="#E6E6E6"/>
<path d="M310.943 123.767L351.939 142.814C353.452 143.517 355.063 143.258 355.538 142.237C355.606 142.089 355.648 141.931 355.663 141.77L357.785 119.135C357.875 118.166 357.046 117.068 355.779 116.479L328.592 103.848C327.326 103.259 325.951 103.334 325.269 104.028L309.339 120.247C308.524 121.077 308.967 122.497 310.327 123.419C310.523 123.551 310.729 123.667 310.943 123.767Z" fill="#E6E6E6"/>
<path d="M278.789 301.1C279.233 301.101 279.675 301.049 280.107 300.944C280.715 300.818 281.286 300.555 281.776 300.174C282.267 299.793 282.664 299.305 282.936 298.747L308 244.802C309.037 242.569 307.644 239.713 304.896 238.436L268.196 221.384C265.447 220.106 262.366 220.885 261.328 223.118L236.265 277.063C236.014 277.631 235.897 278.249 235.923 278.87C235.948 279.49 236.115 280.097 236.411 280.643C237.054 281.879 238.097 282.861 239.369 283.43L276.069 300.48C276.92 300.882 277.848 301.093 278.789 301.1Z" fill="#3F3D56"/>
<path d="M273.77 309.265L316.233 328.994L249.624 472.357L207.162 452.629L273.77 309.265Z" fill="#E6E6E6"/>
<path d="M326.083 126.132L338.536 131.917C340.938 133.033 344.18 131.173 345.761 127.771C347.342 124.368 346.673 120.691 344.27 119.574L331.818 113.789C329.415 112.672 326.173 114.533 324.592 117.935C323.011 121.338 323.68 125.015 326.083 126.132Z" fill="#3F3D56"/>
<path d="M311.842 280.714C319.783 284.412 319.914 300.972 317.424 306.338L312.911 316.05L284.147 302.686L288.659 292.973C291.154 287.61 303.895 277.03 311.842 280.714Z" fill="#3F3D56"/>
<path d="M443.756 247.658C446.561 249.527 449.431 245.079 446.573 243.294C443.768 241.425 440.898 245.873 443.756 247.658Z" fill="#E6E6E6"/>
<path d="M151.82 183.752C154.624 185.62 157.495 181.173 154.636 179.387C151.832 177.519 148.961 181.966 151.82 183.752Z" fill="#E6E6E6"/>
<path d="M350.801 234.587C353.606 236.455 356.477 232.008 353.618 230.222C350.814 228.353 347.943 232.801 350.801 234.587Z" fill="#E6E6E6"/>
<path d="M443.756 408.877C446.561 410.746 449.431 406.298 446.573 404.512C443.768 402.644 440.898 407.091 443.756 408.877Z" fill="#E6E6E6"/>
<path d="M300.693 45.0456C303.498 46.9143 306.368 42.4667 303.509 40.681C300.705 38.8124 297.835 43.26 300.693 45.0456Z" fill="#E6E6E6"/>
<path d="M438.673 130.738C441.477 132.607 444.348 128.159 441.489 126.374C438.685 124.505 435.814 128.953 438.673 130.738Z" fill="#E6E6E6"/>
<path d="M240.215 106.172L242 105.781L241.609 103.996L242.799 103.735L243.19 105.52L244.974 105.129L245.235 106.319L243.451 106.71L243.841 108.494L242.652 108.755L242.26 106.97L240.476 107.362L240.215 106.172Z" fill="#E6E6E6"/>
<path d="M530.77 254.884L532.554 254.493L532.164 252.708L533.353 252.448L533.745 254.232L535.53 253.841L535.79 255.031L534.005 255.422L534.396 257.207L533.207 257.467L532.815 255.683L531.031 256.073L530.77 254.884Z" fill="#E6E6E6"/>
<path d="M164.842 330.743C166.327 331.43 168.024 331.501 169.561 330.939C171.098 330.377 172.35 329.229 173.041 327.745L180.385 311.939C181.072 310.455 181.142 308.758 180.58 307.222C180.017 305.686 178.868 304.436 177.384 303.747C175.901 303.058 174.204 302.986 172.668 303.546C171.131 304.107 169.88 305.255 169.189 306.737L161.845 322.544C161.157 324.029 161.086 325.726 161.648 327.263C162.21 328.8 163.359 330.051 164.842 330.743Z" fill="#3F3D56"/>
<path d="M289.75 388.839C291.235 389.527 292.932 389.598 294.469 389.036C296.006 388.474 297.258 387.326 297.949 385.842L305.293 370.036C305.98 368.552 306.05 366.855 305.488 365.319C304.925 363.783 303.776 362.533 302.293 361.844C300.809 361.155 299.113 361.083 297.576 361.643C296.039 362.204 294.788 363.352 294.097 364.834L286.753 380.641C286.065 382.125 285.994 383.823 286.556 385.36C287.118 386.897 288.267 388.148 289.75 388.839Z" fill="#3F3D56"/>
<path d="M176.155 296.208L225.396 319.086C228.531 314.209 237.982 289.215 235.86 281.799L234.818 273.504L205.417 259.079L198.902 264.529C189.722 261.426 176.229 284.172 176.155 296.208Z" fill="#E6E6E6"/>
<path d="M199.016 294.621L211.468 300.407C213.871 301.523 217.528 298.771 219.618 294.273C221.708 289.774 221.453 285.205 219.05 284.088L206.598 278.303C204.195 277.186 200.539 279.939 198.449 284.437C196.359 288.936 196.613 293.505 199.016 294.621Z" fill="#3F3D56"/>
<path d="M304.622 324.392L309.386 313.907L306.643 312.642L301.893 323.093L233.11 475.602L235.85 476.875" fill="#3F3D56"/>
<path d="M257.515 333.392L306.757 356.27C314.021 352.52 325.123 327.976 317.22 318.984L316.179 310.688L286.777 296.264L280.262 301.714C273.507 303.786 260.356 327.262 257.515 333.392Z" fill="#E6E6E6"/>
<path d="M281.39 329.625L293.842 335.41C296.245 336.527 299.674 334.264 301.485 330.366C303.296 326.469 302.814 322.389 300.411 321.273L287.959 315.487C285.556 314.371 282.127 316.634 280.316 320.531C278.505 324.428 278.987 328.508 281.39 329.625Z" fill="#3F3D56"/>
<path d="M530.952 223.56C489.641 223.56 456.152 190.071 456.152 148.76C456.152 107.45 489.641 73.9608 530.952 73.9608C572.263 73.9608 605.752 107.45 605.752 148.76C605.752 190.071 572.263 223.56 530.952 223.56Z" fill="#FF6584"/>
<path opacity="0.3" d="M224.263 226.668L178.807 93.9099L228.721 225.079C228.968 225.39 229.137 225.756 229.214 226.145C229.291 226.535 229.274 226.938 229.165 227.32C229.056 227.702 228.857 228.052 228.585 228.342C228.313 228.631 227.976 228.852 227.602 228.986C227.227 229.119 226.827 229.161 226.433 229.109C226.039 229.056 225.663 228.911 225.337 228.684C225.01 228.458 224.743 228.157 224.556 227.806C224.369 227.455 224.269 227.065 224.263 226.668Z" fill="#F0F0F0"/>
<path d="M108.393 147.535C117.292 150.493 127.156 153.398 137.988 156.251C194.011 171.001 269.105 182.506 349.435 188.649C429.765 194.791 505.735 194.836 563.35 188.775C591.416 185.823 613.615 181.576 629.329 176.153C645.966 170.412 654.708 163.494 655.313 155.591C656.49 140.196 626.11 126.646 600.417 117.99L599.721 120.054C635.004 131.941 653.975 144.503 653.14 155.425C652.077 169.337 619.266 180.702 563.122 186.609C505.634 192.656 429.804 192.609 349.601 186.477C269.398 180.344 194.442 168.861 138.542 154.143C83.9503 139.771 53.2484 123.549 54.3122 109.637C55.1954 98.0872 77.9628 88.2066 118.42 81.8145L118.08 79.6627C88.6833 84.3074 53.3803 93.2488 52.1396 109.471C51.5355 117.374 59.1241 125.54 74.6949 133.744C83.5709 138.42 94.8487 143.034 108.393 147.535Z" fill="#3F3D56"/>
<path d="M86.4141 280.2C82.1216 280.2 78.6419 276.72 78.6419 272.428C78.6419 268.135 82.1216 264.656 86.4141 264.656C90.7065 264.656 94.1862 268.135 94.1862 272.428C94.1862 276.72 90.7065 280.2 86.4141 280.2Z" fill="#FF6584"/>
<path d="M37.0317 490.801C32.7392 490.801 29.2595 487.321 29.2595 483.029C29.2595 478.737 32.7392 475.257 37.0317 475.257C41.3241 475.257 44.8038 478.737 44.8038 483.029C44.8038 487.321 41.3241 490.801 37.0317 490.801Z" fill="#F2F2F2"/>
<path d="M302.099 538.124C293.73 538.124 286.945 531.339 286.945 522.971C286.945 514.602 293.73 507.817 302.099 507.817C310.467 507.817 317.252 514.602 317.252 522.971C317.252 531.339 310.467 538.124 302.099 538.124Z" fill="#F2F2F2"/>
<path d="M417.566 337.571C413.274 337.571 409.794 334.091 409.794 329.799C409.794 325.506 413.274 322.026 417.566 322.026C421.858 322.026 425.338 325.506 425.338 329.799C425.338 334.091 421.858 337.571 417.566 337.571Z" fill="#3F3D56"/>
<path d="M156.275 347.686L122.742 356.367L102.174 396.764L136.945 398.128L156.275 347.686Z" fill="#E6E6E6"/>
<path d="M233.675 289.449L215.219 307.915L168.345 409.261L176.975 416.717L233.675 289.449Z" fill="#CCCCCC"/>
<path d="M273.805 306.188L272.357 332.256L228.113 434.778L216.802 433.321L273.805 306.188Z" fill="#CCCCCC"/>
<path d="M275.013 411.498L293.073 441.056L279.759 484.388L253.824 461.188L275.013 411.498Z" fill="#E6E6E6"/>
<path d="M115.477 429.66C124.854 429.66 135.132 429.306 146.31 428.597C204.126 424.926 279.016 412.161 357.184 392.655C435.351 373.15 507.459 349.232 560.222 325.311C585.924 313.657 605.651 302.627 618.853 292.524C632.83 281.829 638.944 272.507 637.025 264.817C633.287 249.836 600.184 246.559 573.072 246.447L573.063 248.626C610.294 248.779 632.259 254.717 634.911 265.345C638.289 278.881 610.738 300.015 559.322 323.326C506.675 347.196 434.7 371.067 356.656 390.542C278.612 410.016 203.861 422.759 146.171 426.423C89.833 430.001 55.5816 424.29 52.2037 410.753C49.3993 399.513 67.8886 382.957 104.265 364.131L103.264 362.196C76.8322 375.875 46.1508 395.494 50.0897 411.28C52.0087 418.97 61.7857 424.326 79.1491 427.201C89.0469 428.839 101.204 429.66 115.477 429.66Z" fill="#3F3D56"/>
</g>
<defs>
<clipPath id="clip0_11_1175">
<rect width="655.346" height="600" fill="white" transform="matrix(-1 0 0 1 655.346 0)"/>
</clipPath>
</defs>
</svg>
